<svg width="25" height="24" viewBox="0 0 25 24" fill="none" xmlns="http://www.w3.org/2000/svg">
<g clip-path="url(#clip0_360_544)">
<path d="M16.9659 5.12059C17.6944 4.86687 18.255 4.57888 18.6047 4.29259C18.8447 4.09716 18.9202 3.96859 18.9202 3.91716C18.9202 3.86573 18.8447 3.73716 18.6047 3.54002C18.255 3.25545 17.6962 2.96745 16.9659 2.71373C15.3682 2.16002 13.1567 1.83602 10.7859 1.83602C8.41501 1.83602 6.20358 2.16173 4.60587 2.71373C3.8773 2.96745 3.31672 3.25545 2.96701 3.54173C2.72701 3.73716 2.65158 3.86402 2.65158 3.91716C2.65158 3.96859 2.72701 4.09716 2.96701 4.2943C3.31672 4.57887 3.87558 4.86687 4.60587 5.12059C6.20358 5.6743 8.41501 5.9983 10.7859 5.9983C13.1567 5.9983 15.3682 5.67259 16.9659 5.12059ZM2.12873 10.8926V13.9114C3.01844 14.8492 5.41158 15.9909 8.33444 16.332C12.6202 16.8309 16.6779 15.8949 19.4327 14.028L19.443 10.9423C16.5082 12.6686 12.3767 13.3937 8.19901 12.9052C5.61215 12.6052 3.4093 11.8252 2.12701 10.8926H2.12873ZM2.12873 9.00688C3.02015 9.94287 5.41158 11.0846 8.33444 11.424C12.6287 11.9246 16.695 10.9852 19.4499 9.10973L19.4619 5.68802C17.7082 6.71659 14.4802 7.40573 10.7859 7.40573C7.10701 7.40573 3.8893 6.72002 2.13387 5.70002C2.13157 6.80173 2.12985 7.90345 2.12873 9.00516V9.00688ZM2.13215 15.8006L2.13901 18.3343L2.1133 18.1594C2.63787 19.8943 5.98758 21.288 10.9762 21.288C13.6933 21.288 15.8224 20.8766 17.4596 20.0674C17.919 19.8394 18.2687 19.6474 18.6116 19.3972C18.8396 19.2309 18.9887 19.1297 19.2339 18.9137C19.4876 18.6892 19.8784 18.744 20.1047 18.9994C20.3293 19.2514 20.3584 19.6629 20.1047 19.8892C19.8304 20.1292 19.7019 20.2372 19.4344 20.4326C19.035 20.724 18.5807 21.0274 18.0562 21.288C16.2493 22.1812 14.4082 22.7143 10.9762 22.7143C5.25901 22.7143 1.47901 20.9057 0.755582 18.5143L0.729868 18.4286V18.3394L0.719582 14.7206C0.715488 11.1606 0.718345 7.60058 0.728153 4.04059C0.723808 3.99959 0.721519 3.95839 0.721296 3.91716C0.723011 1.9903 5.22815 0.428589 10.7859 0.428589C16.3436 0.428589 20.8487 1.9903 20.8487 3.91716C20.8493 3.99243 20.8429 4.0676 20.8299 4.14173C20.8464 4.1956 20.8545 4.25169 20.8539 4.30802L20.8144 16.5052C20.8127 16.8446 20.5007 17.1189 20.1167 17.1172C19.7327 17.1172 19.4224 16.8412 19.4242 16.5V15.8589C16.4927 17.5749 12.3682 18.2983 8.19901 17.8132C5.61558 17.5114 3.41272 16.7332 2.13044 15.8006H2.13215ZM17.8007 8.98116C17.641 8.98253 17.4872 8.9205 17.3731 8.80867C17.259 8.69684 17.194 8.54433 17.1922 8.38459C17.1922 8.05545 17.4664 7.78973 17.8024 7.78973C18.1384 7.78973 18.4127 8.05545 18.4127 8.38459C18.4127 8.71545 18.1384 8.98116 17.8024 8.98116H17.8007ZM17.8007 13.8892C17.641 13.8905 17.4872 13.8285 17.3731 13.7167C17.259 13.6048 17.194 13.4523 17.1922 13.2926C17.1922 12.9634 17.4664 12.696 17.8024 12.696C18.1384 12.696 18.4127 12.9634 18.4127 13.2926C18.4127 13.6217 18.1384 13.8892 17.8024 13.8892H17.8007ZM17.8007 18.8606C17.7215 18.8613 17.6429 18.8463 17.5694 18.8166C17.4959 18.7869 17.429 18.743 17.3725 18.6875C17.316 18.6319 17.271 18.5658 17.24 18.4928C17.2091 18.4199 17.1928 18.3415 17.1922 18.2623C17.1922 17.9332 17.4664 17.6657 17.8024 17.6657C18.1384 17.6657 18.4127 17.9332 18.4127 18.2623C18.4127 18.5914 18.1384 18.8589 17.8024 18.8589L17.8007 18.8606Z" fill="black"/>
</g>
<defs>
<clipPath id="clip0_360_544">
<rect width="24" height="24" fill="white" transform="translate(0.5)"/>
</clipPath>
</defs>
</svg>
