<svg width="58" height="59" viewBox="0 0 58 59" fill="none" xmlns="http://www.w3.org/2000/svg">
<path fill-rule="evenodd" clip-rule="evenodd" d="M10 18.1C10 13.9026 13.4026 10.5 17.6 10.5H40.4C44.5973 10.5 48 13.9026 48 18.1V40.9C48 45.0973 44.5973 48.5 40.4 48.5H17.6C13.4026 48.5 10 45.0973 10 40.9V18.1ZM17.6 14.3C15.5013 14.3 13.8 16.0013 13.8 18.1V40.9C13.8 42.9987 15.5013 44.7 17.6 44.7H29V31.4H27.1C26.0506 31.4 25.2 30.5494 25.2 29.5C25.2 28.4506 26.0506 27.6 27.1 27.6H29V24.75C29 21.0773 31.9773 18.1 35.65 18.1H36.79C37.8394 18.1 38.69 18.9507 38.69 20C38.69 21.0493 37.8394 21.9 36.79 21.9H35.65C34.076 21.9 32.8 23.176 32.8 24.75V27.6H36.79C37.8394 27.6 38.69 28.4506 38.69 29.5C38.69 30.5494 37.8394 31.4 36.79 31.4H32.8V44.7H40.4C42.4987 44.7 44.2 42.9987 44.2 40.9V18.1C44.2 16.0013 42.4987 14.3 40.4 14.3H17.6Z" fill="white"/>
</svg>
