<svg width="47" height="39" viewBox="0 0 47 39" fill="none" xmlns="http://www.w3.org/2000/svg">
<rect x="1.5" y="1.99976" width="43.084" height="35.0005" rx="3.5" stroke="white" stroke-width="3"/>
<path d="M11.7821 30.5003H14.913C15.345 30.5003 15.6951 30.1501 15.6951 29.7182V16.0328C15.6951 15.6008 15.345 15.2507 14.913 15.2507H11.7821C11.3501 15.2507 11 15.6008 11 16.0328V29.7182C11 30.1501 11.3501 30.5003 11.7821 30.5003Z" fill="white"/>
<path d="M11.7821 12.8442H14.913C15.345 12.8442 15.6951 12.4941 15.6951 12.0621V9.28183C15.6951 8.84988 15.345 8.49976 14.913 8.49976H11.7821C11.3501 8.49976 11 8.84988 11 9.28183V12.0621C11 12.4941 11.3501 12.8442 11.7821 12.8442Z" fill="white"/>
<path d="M33.9061 16.8375C33.4661 16.2584 32.8174 15.7821 31.9596 15.4088C31.1018 15.0358 30.1549 14.8491 29.1189 14.8491C27.0159 14.8491 25.2339 15.6517 23.773 17.2572C23.4823 17.5767 23.2709 17.5068 23.2709 17.0748V16.0323C23.2709 15.6003 22.9208 15.2502 22.4888 15.2502H19.692C19.26 15.2502 18.9099 15.6003 18.9099 16.0323V29.7176C18.9099 30.1496 19.26 30.4998 19.692 30.4998H22.823C23.2549 30.4998 23.605 30.1496 23.605 29.7176V24.9582C23.605 22.9754 23.7248 21.6164 23.9642 20.8812C24.2036 20.1461 24.6465 19.5557 25.2926 19.1102C25.9387 18.6646 26.6682 18.4417 27.4815 18.4417C28.1164 18.4417 28.6595 18.5976 29.1107 18.9096C29.5619 19.2216 29.8877 19.6586 30.0882 20.2213C30.2888 20.7838 30.389 22.023 30.389 23.9391V29.7176C30.389 30.1495 30.7391 30.4997 31.1711 30.4997H34.302C34.734 30.4997 35.0841 30.1495 35.0841 29.7176V21.9673C35.0841 20.5973 34.9977 19.5445 34.8252 18.8094C34.6527 18.0742 34.3463 17.4169 33.9061 16.8375Z" fill="white"/>
</svg>
