<svg width="19" height="25" viewBox="0 0 19 25" fill="none" xmlns="http://www.w3.org/2000/svg">
<path d="M2.17656 24.3824H16.8031C17.7281 24.3824 18.4797 23.6309 18.4797 22.7059V3.75781C18.4797 2.83281 17.7281 2.08125 16.8031 2.08125H14.6496V0.541992C14.6496 0.245703 14.4039 0 14.1076 0C13.8113 0 13.5656 0.245703 13.5656 0.541992V2.08125H10.0318V0.541992C10.0318 0.245703 9.78613 0 9.48984 0C9.19355 0 8.94785 0.245703 8.94785 0.541992V2.08125H5.41406V0.541992C5.41406 0.245703 5.16836 0 4.87207 0C4.57578 0 4.33008 0.245703 4.33008 0.541992V2.08125H2.17656C1.25156 2.08125 0.5 2.83281 0.5 3.75781V22.6986C0.5 23.6236 1.25156 24.3824 2.17656 24.3824ZM1.58398 3.75781C1.58398 3.43262 1.85137 3.16523 2.17656 3.16523H4.33008V4.71895C4.33008 5.01523 4.57578 5.26094 4.87207 5.26094C5.16836 5.26094 5.41406 5.01523 5.41406 4.71895V3.16523H8.94785V4.71895C8.94785 5.01523 9.19355 5.26094 9.48984 5.26094C9.78613 5.26094 10.0318 5.01523 10.0318 4.71895V3.16523H13.5656V4.71895C13.5656 5.01523 13.8113 5.26094 14.1076 5.26094C14.4039 5.26094 14.6496 5.01523 14.6496 4.71895V3.16523H16.8031C17.1283 3.16523 17.3957 3.43262 17.3957 3.75781V22.6986C17.3957 23.0238 17.1283 23.2912 16.8031 23.2912H2.17656C1.85137 23.2912 1.58398 23.0238 1.58398 22.6986V3.75781Z" fill="black"/>
<path d="M4.13472 9.54624C4.24312 9.65464 4.38042 9.70522 4.51772 9.70522C4.65503 9.70522 4.79233 9.65464 4.90073 9.54624L6.81577 7.6312C7.02534 7.42163 7.02534 7.07476 6.81577 6.86519C6.6062 6.65562 6.25933 6.65562 6.04976 6.86519L4.51772 8.39722L3.96128 7.84077C3.75171 7.6312 3.40483 7.6312 3.19526 7.84077C2.98569 8.05034 2.98569 8.39722 3.19526 8.60679L4.13472 9.54624Z" fill="black"/>
<path d="M8.19629 8.74414H15.4012C15.6975 8.74414 15.9432 8.49844 15.9432 8.20215C15.9432 7.90586 15.6975 7.66016 15.4012 7.66016H8.19629C7.9 7.66016 7.6543 7.90586 7.6543 8.20215C7.6543 8.49844 7.9 8.74414 8.19629 8.74414Z" fill="black"/>
<path d="M4.13472 14.576C4.24312 14.6844 4.38042 14.735 4.51772 14.735C4.65503 14.735 4.79233 14.6844 4.90073 14.576L6.81577 12.661C7.02534 12.4514 7.02534 12.1045 6.81577 11.895C6.6062 11.6854 6.25933 11.6854 6.04976 11.895L4.51772 13.4198L3.96128 12.8633C3.75171 12.6538 3.40483 12.6538 3.19526 12.8633C2.98569 13.0729 2.98569 13.4198 3.19526 13.6293L4.13472 14.576Z" fill="black"/>
<path d="M8.19629 13.7738H15.4012C15.6975 13.7738 15.9432 13.5281 15.9432 13.2318C15.9432 12.9355 15.6975 12.6898 15.4012 12.6898H8.19629C7.9 12.6898 7.6543 12.9355 7.6543 13.2318C7.6543 13.5281 7.9 13.7738 8.19629 13.7738Z" fill="black"/>
<path d="M4.13472 19.5985C4.24312 19.7069 4.38042 19.7575 4.51772 19.7575C4.65503 19.7575 4.79233 19.7069 4.90073 19.5985L6.81577 17.6834C7.02534 17.4739 7.02534 17.127 6.81577 16.9174C6.6062 16.7079 6.25933 16.7079 6.04976 16.9174L4.51772 18.4495L3.96128 17.893C3.75171 17.6834 3.40483 17.6834 3.19526 17.893C2.98569 18.1026 2.98569 18.4495 3.19526 18.659L4.13472 19.5985Z" fill="black"/>
<path d="M8.19629 18.8035H15.4012C15.6975 18.8035 15.9432 18.5578 15.9432 18.2615C15.9432 17.9652 15.6975 17.7195 15.4012 17.7195H8.19629C7.9 17.7195 7.6543 17.9652 7.6543 18.2615C7.6543 18.5578 7.9 18.8035 8.19629 18.8035Z" fill="black"/>
</svg>
