<svg width="24" height="24" viewBox="0 0 24 24" fill="none" xmlns="http://www.w3.org/2000/svg">
<g clip-path="url(#clip0_360_536)">
<path fill-rule="evenodd" clip-rule="evenodd" d="M10.0833 9C9.55406 9 9.125 9.44771 9.125 10V21C9.125 21.5523 9.55406 22 10.0833 22H20.625C21.1543 22 21.5833 21.5523 21.5833 21V10C21.5833 9.44771 21.1543 9 20.625 9H10.0833ZM14.875 7V3C14.875 2.44772 14.446 2 13.9167 2H3.375C2.84573 2 2.41667 2.44772 2.41667 3V14C2.41667 14.5523 2.84573 15 3.375 15H7.20833V10C7.20833 8.34315 8.49552 7 10.0833 7H14.875ZM16.7917 7H20.625C22.2129 7 23.5 8.34315 23.5 10V21C23.5 22.6569 22.2129 24 20.625 24H10.0833C8.49552 24 7.20833 22.6569 7.20833 21V17H3.375C1.78719 17 0.5 15.6569 0.5 14V3C0.5 1.34315 1.78719 0 3.375 0H13.9167C15.5045 0 16.7917 1.34315 16.7917 3V7Z" fill="#4D4D4D"/>
</g>
<defs>
<clipPath id="clip0_360_536">
<rect width="23" height="24" fill="white" transform="translate(0.5)"/>
</clipPath>
</defs>
</svg>
