<svg width="26" height="22" viewBox="0 0 26 22" fill="none" xmlns="http://www.w3.org/2000/svg">
<path d="M7.25 16.1741V10.1845M13 16.1741V6.59073M18.75 16.1741V12.5803M1.5 17.1324V5.6324C1.5 4.29062 1.5 3.61971 1.81336 3.10722C2.08899 2.65642 2.5288 2.28989 3.06978 2.06021C3.68477 1.79907 4.48986 1.79907 6.1 1.79907H19.9C21.5101 1.79907 22.3153 1.79907 22.9303 2.06021C23.4712 2.28989 23.9111 2.65642 24.1866 3.10722C24.5 3.61971 24.5 4.29062 24.5 5.6324V17.1324C24.5 18.4742 24.5 19.1451 24.1866 19.6576C23.9111 20.1084 23.4712 20.4749 22.9303 20.7046C22.3153 20.9657 21.5101 20.9657 19.9 20.9657H6.1C4.48986 20.9657 3.68477 20.9657 3.06978 20.7046C2.5288 20.4749 2.08899 20.1084 1.81336 19.6576C1.5 19.1451 1.5 18.4742 1.5 17.1324Z" stroke="black" stroke-width="2" stroke-linecap="round" stroke-linejoin="round"/>
</svg>
