<svg width="401" height="174" viewBox="0 0 401 174" fill="none" xmlns="http://www.w3.org/2000/svg">
<path d="M115.959 130.001C115.407 130.024 114.978 130.49 115.001 131.042L115.374 140.034C115.397 140.586 115.863 141.014 116.415 140.992C116.967 140.969 117.395 140.503 117.372 139.951L117.041 131.958L125.034 131.626C125.586 131.603 126.014 131.137 125.991 130.585C125.968 130.034 125.503 129.605 124.951 129.628L115.959 130.001ZM115.323 131.736C116.537 132.853 117.756 133.944 118.981 135.009L120.293 133.499C119.083 132.447 117.877 131.369 116.677 130.264L115.323 131.736ZM126.521 141.191C129.133 143.208 131.763 145.114 134.409 146.915L135.535 145.261C132.922 143.483 130.324 141.6 127.744 139.608L126.521 141.191ZM142.661 152.165C145.5 153.85 148.352 155.421 151.213 156.884L152.123 155.103C149.3 153.66 146.485 152.109 143.682 150.445L142.661 152.165ZM160.033 161.046C163.06 162.358 166.09 163.556 169.12 164.646L169.797 162.764C166.807 161.688 163.816 160.506 160.828 159.211L160.033 161.046ZM178.408 167.659C181.569 168.576 184.723 169.381 187.863 170.083L188.299 168.131C185.198 167.438 182.085 166.643 178.965 165.738L178.408 167.659ZM197.457 171.919C200.706 172.439 203.934 172.854 207.133 173.173L207.33 171.182C204.17 170.868 200.982 170.458 197.773 169.945L197.457 171.919ZM216.875 173.855C220.169 173.991 223.425 174.029 226.632 173.979L226.602 171.98C223.43 172.028 220.213 171.991 216.957 171.857L216.875 173.855ZM236.376 173.56C239.682 173.326 242.926 173.004 246.097 172.607L245.848 170.622C242.712 171.016 239.505 171.334 236.235 171.565L236.376 173.56ZM255.742 171.133C259.027 170.54 262.214 169.872 265.29 169.142L264.828 167.196C261.787 167.917 258.636 168.579 255.387 169.165L255.742 171.133ZM274.718 166.626C277.983 165.654 281.082 164.623 283.997 163.556L283.309 161.678C280.434 162.731 277.374 163.749 274.147 164.709L274.718 166.626ZM293.057 159.876C294.604 159.178 296.07 158.477 297.452 157.778L296.548 155.994C295.195 156.679 293.756 157.367 292.235 158.053L293.057 159.876Z" fill="#F36A20"/>
<path d="M66.5 130C101.57 130 130 101.57 130 66.5001C130 31.43 101.57 3.00012 66.5 3.00012C31.4299 3.00012 3 31.43 3 66.5001C3 101.57 31.4299 130 66.5 130Z" stroke="black" stroke-width="6" stroke-linecap="round" stroke-linejoin="round"/>
<path fill-rule="evenodd" clip-rule="evenodd" d="M52.3752 41.2938L91.1259 63.437C92.8175 64.4037 93.4052 66.5586 92.4386 68.2503C92.126 68.7972 91.6728 69.2504 91.1259 69.563L52.3752 91.7062C50.6836 92.6728 48.5286 92.0851 47.562 90.3935C47.2574 89.8604 47.0972 89.2571 47.0972 88.6432V44.3568C47.0972 42.4084 48.6766 40.829 50.6249 40.829C51.2389 40.829 51.8422 40.9892 52.3752 41.2938Z" fill="#F8992F"/>
<path d="M185.449 35.0704C185.449 36.7631 185.039 38.2345 184.219 39.4845C183.398 40.7345 182.201 41.698 180.625 42.3751C179.062 43.0522 177.161 43.3907 174.922 43.3907C173.932 43.3907 172.962 43.3256 172.012 43.1954C171.074 43.0652 170.169 42.8764 169.297 42.629C168.438 42.3686 167.617 42.0496 166.836 41.672V36.047C168.19 36.646 169.596 37.1863 171.055 37.6681C172.513 38.1499 173.958 38.3907 175.391 38.3907C176.38 38.3907 177.174 38.2605 177.773 38.0001C178.385 37.7397 178.828 37.3816 179.102 36.9259C179.375 36.4702 179.512 35.9493 179.512 35.3634C179.512 34.6473 179.271 34.0353 178.789 33.5275C178.307 33.0197 177.643 32.5444 176.797 32.1017C175.964 31.659 175.02 31.1837 173.965 30.6759C173.301 30.3634 172.578 29.9858 171.797 29.5431C171.016 29.0874 170.273 28.534 169.57 27.8829C168.867 27.2319 168.288 26.4441 167.832 25.5197C167.389 24.5822 167.168 23.4624 167.168 22.1603C167.168 20.4545 167.559 18.9962 168.34 17.7853C169.121 16.5743 170.234 15.6499 171.68 15.0118C173.138 14.3608 174.857 14.0353 176.836 14.0353C178.32 14.0353 179.733 14.2111 181.074 14.5626C182.428 14.9012 183.841 15.396 185.312 16.047L183.359 20.754C182.044 20.2202 180.866 19.81 179.824 19.5236C178.783 19.2241 177.721 19.0743 176.641 19.0743C175.885 19.0743 175.241 19.198 174.707 19.4454C174.173 19.6798 173.77 20.0184 173.496 20.4611C173.223 20.8907 173.086 21.392 173.086 21.965C173.086 22.642 173.281 23.215 173.672 23.6837C174.076 24.1394 174.674 24.5822 175.469 25.0118C176.276 25.4415 177.279 25.9428 178.477 26.5157C179.935 27.2059 181.178 27.9285 182.207 28.6837C183.249 29.4259 184.049 30.3048 184.609 31.3204C185.169 32.323 185.449 33.573 185.449 35.0704ZM207.07 43.0001H190.625V14.4454H207.07V19.4064H196.68V25.6759H206.348V30.6368H196.68V38.0001H207.07V43.0001ZM224.062 43.0001H218.008V19.4845H210.254V14.4454H231.816V19.4845H224.062V43.0001ZM257.617 43.0001H251.562V19.4845H243.809V14.4454H265.371V19.4845H257.617V43.0001ZM293.164 43.0001H287.129V30.6759H275.82V43.0001H269.766V14.4454H275.82V25.6368H287.129V14.4454H293.164V43.0001ZM316.836 43.0001H300.391V14.4454H316.836V19.4064H306.445V25.6759H316.113V30.6368H306.445V38.0001H316.836V43.0001ZM180.684 91.0001L173.809 68.5978H173.633C173.659 69.1316 173.698 69.9389 173.75 71.0197C173.815 72.0874 173.874 73.2267 173.926 74.4376C173.978 75.6486 174.004 76.7423 174.004 77.7189V91.0001H168.594V62.4454H176.836L183.594 84.2814H183.711L190.879 62.4454H199.121V91.0001H193.477V77.4845C193.477 76.5861 193.49 75.5509 193.516 74.379C193.555 73.2072 193.6 72.0939 193.652 71.0392C193.704 69.9715 193.743 69.1707 193.77 68.6368H193.594L186.23 91.0001H180.684ZM223.809 91.0001L221.738 84.2032H211.328L209.258 91.0001H202.734L212.812 62.3282H220.215L230.332 91.0001H223.809ZM220.293 79.1251L218.223 72.4845C218.092 72.0418 217.917 71.4754 217.695 70.7853C217.487 70.0822 217.272 69.3725 217.051 68.6564C216.842 67.9272 216.673 67.2957 216.543 66.7618C216.413 67.2957 216.23 67.9598 215.996 68.754C215.775 69.5353 215.56 70.2775 215.352 70.9806C215.143 71.6837 214.993 72.185 214.902 72.4845L212.852 79.1251H220.293ZM242.266 62.4454C244.857 62.4454 246.992 62.7579 248.672 63.3829C250.365 64.0079 251.621 64.9519 252.441 66.215C253.262 67.478 253.672 69.073 253.672 71.0001C253.672 72.3022 253.424 73.4415 252.93 74.4181C252.435 75.3947 251.784 76.2215 250.977 76.8986C250.169 77.5756 249.297 78.129 248.359 78.5587L256.758 91.0001H250.039L243.223 80.0431H240V91.0001H233.945V62.4454H242.266ZM241.836 67.4064H240V75.1212H241.953C243.958 75.1212 245.391 74.7892 246.25 74.1251C247.122 73.448 247.559 72.4585 247.559 71.1564C247.559 69.8022 247.09 68.8387 246.152 68.2657C245.228 67.6928 243.789 67.4064 241.836 67.4064ZM283.32 91.0001H276.445L268.965 78.9689L266.406 80.8048V91.0001H260.352V62.4454H266.406V75.5118C266.81 74.9519 267.207 74.392 267.598 73.8322C267.988 73.2723 268.385 72.7124 268.789 72.1525L276.523 62.4454H283.242L273.281 75.0822L283.32 91.0001ZM303.359 91.0001H286.914V62.4454H303.359V67.4064H292.969V73.6759H302.637V78.6368H292.969V86.0001H303.359V91.0001ZM320.352 91.0001H314.297V67.4845H306.543V62.4454H328.105V67.4845H320.352V91.0001ZM349.355 83.0704C349.355 84.7631 348.945 86.2345 348.125 87.4845C347.305 88.7345 346.107 89.698 344.531 90.3751C342.969 91.0522 341.068 91.3907 338.828 91.3907C337.839 91.3907 336.868 91.3256 335.918 91.1954C334.98 91.0652 334.076 90.8764 333.203 90.629C332.344 90.3686 331.523 90.0496 330.742 89.672V84.047C332.096 84.646 333.503 85.1863 334.961 85.6681C336.419 86.1499 337.865 86.3907 339.297 86.3907C340.286 86.3907 341.081 86.2605 341.68 86.0001C342.292 85.7397 342.734 85.3816 343.008 84.9259C343.281 84.4702 343.418 83.9493 343.418 83.3634C343.418 82.6473 343.177 82.0353 342.695 81.5275C342.214 81.0197 341.549 80.5444 340.703 80.1017C339.87 79.659 338.926 79.1837 337.871 78.6759C337.207 78.3634 336.484 77.9858 335.703 77.5431C334.922 77.0874 334.18 76.534 333.477 75.8829C332.773 75.2319 332.194 74.4441 331.738 73.5197C331.296 72.5822 331.074 71.4624 331.074 70.1603C331.074 68.4545 331.465 66.9962 332.246 65.7853C333.027 64.5743 334.141 63.6499 335.586 63.0118C337.044 62.3608 338.763 62.0353 340.742 62.0353C342.227 62.0353 343.639 62.2111 344.98 62.5626C346.335 62.9012 347.747 63.396 349.219 64.047L347.266 68.754C345.951 68.2202 344.772 67.81 343.73 67.5236C342.689 67.2241 341.628 67.0743 340.547 67.0743C339.792 67.0743 339.147 67.198 338.613 67.4454C338.079 67.6798 337.676 68.0184 337.402 68.4611C337.129 68.8907 336.992 69.392 336.992 69.965C336.992 70.642 337.188 71.215 337.578 71.6837C337.982 72.1394 338.581 72.5822 339.375 73.0118C340.182 73.4415 341.185 73.9428 342.383 74.5157C343.841 75.2059 345.085 75.9285 346.113 76.6837C347.155 77.4259 347.956 78.3048 348.516 79.3204C349.076 80.323 349.355 81.573 349.355 83.0704ZM236.855 139L229.98 116.598H229.805C229.831 117.132 229.87 117.939 229.922 119.02C229.987 120.087 230.046 121.227 230.098 122.438C230.15 123.649 230.176 124.742 230.176 125.719V139H224.766V110.445H233.008L239.766 132.281H239.883L247.051 110.445H255.293V139H249.648V125.484C249.648 124.586 249.661 123.551 249.688 122.379C249.727 121.207 249.772 120.094 249.824 119.039C249.876 117.971 249.915 117.171 249.941 116.637H249.766L242.402 139H236.855ZM288.418 124.684C288.418 126.884 288.145 128.889 287.598 130.699C287.051 132.496 286.217 134.046 285.098 135.348C283.991 136.65 282.585 137.652 280.879 138.356C279.173 139.046 277.155 139.391 274.824 139.391C272.493 139.391 270.475 139.046 268.77 138.356C267.064 137.652 265.651 136.65 264.531 135.348C263.424 134.046 262.598 132.49 262.051 130.68C261.504 128.87 261.23 126.858 261.23 124.645C261.23 121.689 261.712 119.117 262.676 116.93C263.652 114.729 265.15 113.024 267.168 111.813C269.186 110.602 271.751 109.996 274.863 109.996C277.962 109.996 280.508 110.602 282.5 111.813C284.505 113.024 285.99 114.729 286.953 116.93C287.93 119.13 288.418 121.715 288.418 124.684ZM267.578 124.684C267.578 126.676 267.826 128.395 268.32 129.84C268.828 131.272 269.616 132.379 270.684 133.16C271.751 133.929 273.132 134.313 274.824 134.313C276.543 134.313 277.936 133.929 279.004 133.16C280.072 132.379 280.846 131.272 281.328 129.84C281.823 128.395 282.07 126.676 282.07 124.684C282.07 121.689 281.51 119.332 280.391 117.613C279.271 115.895 277.428 115.035 274.863 115.035C273.158 115.035 271.764 115.426 270.684 116.207C269.616 116.975 268.828 118.082 268.32 119.527C267.826 120.96 267.578 122.679 267.578 124.684ZM305.352 139H299.297V115.484H291.543V110.445H313.105V115.484H305.352V139ZM317.5 139V110.445H323.555V139H317.5ZM356.66 124.684C356.66 126.884 356.387 128.889 355.84 130.699C355.293 132.496 354.46 134.046 353.34 135.348C352.233 136.65 350.827 137.652 349.121 138.356C347.415 139.046 345.397 139.391 343.066 139.391C340.736 139.391 338.717 139.046 337.012 138.356C335.306 137.652 333.893 136.65 332.773 135.348C331.667 134.046 330.84 132.49 330.293 130.68C329.746 128.87 329.473 126.858 329.473 124.645C329.473 121.689 329.954 119.117 330.918 116.93C331.895 114.729 333.392 113.024 335.41 111.813C337.428 110.602 339.993 109.996 343.105 109.996C346.204 109.996 348.75 110.602 350.742 111.813C352.747 113.024 354.232 114.729 355.195 116.93C356.172 119.13 356.66 121.715 356.66 124.684ZM335.82 124.684C335.82 126.676 336.068 128.395 336.562 129.84C337.07 131.272 337.858 132.379 338.926 133.16C339.993 133.929 341.374 134.313 343.066 134.313C344.785 134.313 346.178 133.929 347.246 133.16C348.314 132.379 349.089 131.272 349.57 129.84C350.065 128.395 350.312 126.676 350.312 124.684C350.312 121.689 349.753 119.332 348.633 117.613C347.513 115.895 345.671 115.035 343.105 115.035C341.4 115.035 340.007 115.426 338.926 116.207C337.858 116.975 337.07 118.082 336.562 119.527C336.068 120.96 335.82 122.679 335.82 124.684ZM387.91 139H380.215L367.793 117.399H367.617C367.669 118.297 367.715 119.202 367.754 120.113C367.793 121.025 367.832 121.936 367.871 122.848C367.91 123.746 367.949 124.651 367.988 125.563V139H362.578V110.445H370.215L382.617 131.832H382.754C382.728 130.947 382.695 130.068 382.656 129.195C382.617 128.323 382.578 127.451 382.539 126.578C382.513 125.706 382.487 124.833 382.461 123.961V110.445H387.91V139Z" fill="black"/>
<path d="M168.594 139V110.445H174.648V139H168.594ZM207.168 139H199.473L187.051 117.399H186.875C186.927 118.297 186.973 119.202 187.012 120.113C187.051 121.025 187.09 121.936 187.129 122.848C187.168 123.746 187.207 124.651 187.246 125.563V139H181.836V110.445H189.473L201.875 131.832H202.012C201.986 130.947 201.953 130.068 201.914 129.195C201.875 128.323 201.836 127.451 201.797 126.578C201.771 125.706 201.745 124.833 201.719 123.961V110.445H207.168V139Z" fill="#F8992F"/>
</svg>
