<svg width="53" height="39" viewBox="0 0 53 39" fill="none" xmlns="http://www.w3.org/2000/svg">
<path fill-rule="evenodd" clip-rule="evenodd" d="M40.4706 36.6499C46.1164 36.8554 50.8635 32.4535 51.084 26.8082V12.1916C50.8635 6.54646 46.1164 2.1444 40.4706 2.34993H12.6974C7.05168 2.1444 2.30444 6.54646 2.08398 12.1916V26.8082C2.30444 32.4535 7.05168 36.8554 12.6974 36.6499H40.4706Z" stroke="white" stroke-width="3.6" stroke-linecap="round" stroke-linejoin="round"/>
<path fill-rule="evenodd" clip-rule="evenodd" d="M25.3787 12.5788L33.1231 17.8413C33.6249 18.1343 33.9333 18.6716 33.9333 19.2525C33.9333 19.8336 33.6249 20.3709 33.1231 20.6637L25.3787 26.4212C23.9087 27.4183 21.6841 26.5682 21.6841 25.01V13.9851C21.6841 12.4342 23.9111 11.5816 25.3787 12.5788Z" stroke="white" stroke-width="3.6" stroke-linecap="round" stroke-linejoin="round"/>
</svg>
